<?xml version="1.0" encoding="iso-8859-1"?>
<!-- Generator: Adobe Illustrator 18.1.1, SVG Export Plug-In . SVG Version: 6.00 Build 0)  -->
<svg version="1.1" id="Capa_1" xmlns="http://www.w3.org/2000/svg" xmlns:xlink="http://www.w3.org/1999/xlink" x="0px" y="0px"
	 viewBox="0 0 55.841 55.841" fill="white" style="enable-background:new 0 0 55.841 55.841;" xml:space="preserve">
<g>
	<g>
		<path d="M44.859,25.194c-0.021-0.046-0.049-0.089-0.064-0.111l-7.953-15.8l-0.955,0.481l-1.093-2.156
			c-0.632-1.25-2.159-1.75-3.407-1.117c-1.25,0.632-1.75,2.158-1.119,3.407l1.088,2.146l-0.711,0.358l3.783,7.519H22.969
			c-0.534,0-1.047,0.058-1.53,0.175C17.302,14.643,12.656,9.34,7.251,3.898l-0.446-0.45L6.004,4.249L4.218,2.668
			C3.169,1.739,1.566,1.836,0.639,2.882c-0.929,1.05-0.833,2.652,0.214,3.582L2.41,7.842L1.452,8.799l0.443,0.446
			c6.068,6.109,10.975,11.79,15.001,17.368c0.09,0.124,0.188,0.245,0.298,0.364c0.031,0.207,0.072,0.411,0.121,0.609
			c-0.015,0.138-0.023,0.281-0.023,0.429v21.234h1.374l0.011,2.039c0.006,1.4,1.147,2.529,2.547,2.523
			c1.401-0.008,2.531-1.148,2.524-2.549l-0.01-2.016h1.122V34.413c0.044,0.023,0.094,0.035,0.14,0.055
			c0.015,0.027,0.031,0.059,0.047,0.094c0.134,0.354,0.227,0.721,0.318,1.086c0.25,1,1.352,1.59,2.328,1.322
			c1.011-0.279,1.57-1.328,1.32-2.328c-0.013-0.045-0.024-0.09-0.037-0.135c0.553,0.348,1.066,0.744,1.5,1.24
			c1.604,1.844,4.271-0.844,2.676-2.676c-0.389-0.447-0.825-0.826-1.287-1.166h6.666c0.585,0,1.148-0.072,1.686-0.219l0.773,1.678
			l-0.762-0.23l-0.213,0.693l-2.076-0.715c-1.324-0.457-2.769,0.248-3.223,1.572c-0.459,1.322,0.244,2.768,1.567,3.225l2.246,0.771
			l-0.331,1.086l8.173,2.496c1.294,0.396,2.742-0.021,3.627-1.035c0.896-1.027,1.106-2.494,0.536-3.734L44.859,25.194z
			 M23.599,47.987h-5.045V28.015c0-0.135,0.012-0.264,0.028-0.388l0.017-0.126l-0.035-0.122c-0.066-0.244-0.115-0.502-0.147-0.765
			l-0.025-0.218l-0.156-0.155c-0.126-0.124-0.229-0.245-0.317-0.367C13.951,20.379,9.145,14.791,3.233,8.803l3.568-3.567
			c5.289,5.359,9.837,10.586,13.891,15.963l0.271,0.358l0.047-0.015c-0.032,0.233-0.024,0.484,0.046,0.755
			c0.7,2.734,1.4,5.467,2.101,8.2c0.089,0.344,0.248,0.611,0.442,0.818C23.599,31.315,23.599,47.987,23.599,47.987z M24.859,34.288
			v-0.006c0.017,0.02,0.039,0.043,0.063,0.072C24.895,34.325,24.873,34.303,24.859,34.288z M49.049,40.4
			c-0.562,0.646-1.479,0.912-2.309,0.66l-6.965-2.129l1.289-4.223l2.25,0.688l-2.438-5.283l-0.551,0.211
			c-0.554,0.215-1.156,0.32-1.795,0.32h-8.793c-0.952-0.479-1.934-0.918-2.854-1.439c-0.058-0.033-0.114-0.053-0.171-0.078
			c-0.67-2.61-1.339-5.221-2.01-7.832c-0.011-0.041-0.028-0.072-0.04-0.111h11.812l-4.14-8.219l3.943-1.985l7.391,14.678
			c0.019,0.034,0.037,0.065,0.043,0.069l5.679,12.298C49.754,38.812,49.621,39.743,49.049,40.4z"/>
		<circle cx="50.223" cy="20.881" r="5.618"/>
	</g>
</g>
<g>
</g>
<g>
</g>
<g>
</g>
<g>
</g>
<g>
</g>
<g>
</g>
<g>
</g>
<g>
</g>
<g>
</g>
<g>
</g>
<g>
</g>
<g>
</g>
<g>
</g>
<g>
</g>
<g>
</g>
</svg>
