<?xml version="1.0" encoding="iso-8859-1"?>
<!-- Generator: Adobe Illustrator 18.0.0, SVG Export Plug-In . SVG Version: 6.00 Build 0)  -->
<!DOCTYPE svg PUBLIC "-//W3C//DTD SVG 1.1//EN" "http://www.w3.org/Graphics/SVG/1.1/DTD/svg11.dtd">
<svg version="1.1" id="Capa_1" xmlns="http://www.w3.org/2000/svg" xmlns:xlink="http://www.w3.org/1999/xlink" x="0px" y="0px"
	 viewBox="0 0 454.962 454.962" fill="white" style="enable-background:new 0 0 454.962 454.962;" xml:space="preserve">
<g>
	<path d="M364.316,120.139c-0.141-2.252-1.355-4.3-3.255-5.509c-1.906-1.209-4.272-1.439-6.374-0.615l-89.521,35.145
		c-2.858,1.123-4.66,3.962-4.468,7.024l2.348,36.731c0.197,3.066,2.35,5.651,5.326,6.4l1.414,0.357l-3.788,15.693l-40.679,8.474
		l-64.072-31.495c-0.571-0.278-5.423-2.755-9.647-3.814c-18.289-4.59-36.846,6.502-41.439,24.791l-17.58,69.957l-24.366,56.649
		L25.556,385.82c-7.707,8.288-7.232,21.254,1.051,28.956c3.95,3.669,8.952,5.482,13.945,5.482c5.497,0,10.979-2.195,15.018-6.537
		l45.069-48.492c1.6-1.717,2.892-3.697,3.818-5.852l12.226-28.42l45.125,37.332l-15.649,47.56
		c-3.534,10.749,2.311,22.331,13.056,25.868c2.126,0.7,4.291,1.031,6.413,1.031c8.609,0,16.618-5.468,19.457-14.089l20.02-60.838
		c2.635-8.011,0.09-16.816-6.405-22.192l-43.014-35.588l17.245-66.288l40.636,19.969c2.832,1.393,5.928,2.101,9.042,2.101
		c1.397,0,2.798-0.141,4.177-0.43l61.617-12.834c11.077-2.307,18.186-13.159,15.876-24.236c-1.251-6.019-5.039-10.85-10.001-13.652
		l2.005-8.331l65.354,16.441c0.571,0.143,1.151,0.212,1.727,0.212c0.012,0,0.028,0,0.038-0.001c3.895-0.006,7.048-3.165,7.048-7.061
		c0-0.358-0.027-0.71-0.076-1.053L364.316,120.139z"/>
	<path d="M392.518,137.83l51-29.707c3.937-2.294,5.269-7.343,2.976-11.279c-2.291-3.937-7.345-5.268-11.278-2.975l-51,29.707
		c-3.936,2.292-5.268,7.343-2.975,11.279c1.532,2.63,4.296,4.098,7.135,4.098C389.783,138.953,391.214,138.59,392.518,137.83z"/>
	<path d="M449.92,208.309l-54.359-22.971c-4.198-1.774-9.033,0.19-10.808,4.388c-1.774,4.195,0.186,9.033,4.385,10.807
		l54.362,22.971c1.047,0.443,2.135,0.652,3.205,0.652c3.215,0,6.273-1.89,7.605-5.04
		C456.083,214.921,454.115,210.083,449.92,208.309z"/>
	<path d="M194.135,192.913c26.349-1.683,46.346-24.406,44.656-50.755c-1.682-26.346-24.407-46.341-50.757-44.659
		c-26.346,1.685-46.346,24.407-44.655,50.757C145.061,174.604,167.787,194.597,194.135,192.913z"/>
	<path d="M109.217,66.824c0-30.111-24.496-54.608-54.607-54.608C24.498,12.216,0,36.714,0,66.824
		c0,30.111,24.498,54.608,54.609,54.608C84.721,121.432,109.217,96.935,109.217,66.824z M87.373,66.824
		c0,5.052-1.152,9.839-3.203,14.117L40.492,37.262c4.277-2.051,9.064-3.202,14.117-3.202C72.676,34.06,87.373,48.758,87.373,66.824z
		 M21.844,66.824c0-5.052,1.152-9.84,3.203-14.117l43.68,43.68c-4.277,2.051-9.064,3.202-14.117,3.202
		C36.543,99.589,21.844,84.891,21.844,66.824z"/>
</g>
<g>
</g>
<g>
</g>
<g>
</g>
<g>
</g>
<g>
</g>
<g>
</g>
<g>
</g>
<g>
</g>
<g>
</g>
<g>
</g>
<g>
</g>
<g>
</g>
<g>
</g>
<g>
</g>
<g>
</g>
</svg>
