<?xml version="1.0"?>
<svg xmlns="http://www.w3.org/2000/svg" viewBox="0 0 61.858 61.858" fill="white"><g id="outline"><path d="M50,38a11.91,11.91,0,0,0-3.989.7l-2.665-5.922,5.083.726.752,1.073A1,1,0,0,0,50,35H47v2h3a3.973,3.973,0,0,0,2.827-1.173,3.91,3.91,0,0,0,.7-1A.984.984,0,0,0,54,34V30a1,1,0,0,0-.713-.958L44,26.256V17.815a4.992,4.992,0,0,0-.884-2.827A5,5,0,0,0,48,10V7a5.006,5.006,0,0,0-5-5H41a5.006,5.006,0,0,0-5,5,1,1,0,0,0,1,1h1v2c0,.159.032.309.047.464a6.961,6.961,0,0,0-7.33-.018l-10.41,6.361A9.055,9.055,0,0,0,16,24.487v2.759a6.514,6.514,0,0,0,4.114,6.077l2.161.864.457,1.066-1.989,3.729A12,12,0,1,0,27.4,53.718a3.977,3.977,0,0,0,6.782.688l4.691.586A.861.861,0,0,0,39,55a.826.826,0,0,0,.1-.018A11.995,11.995,0,1,0,50,38Zm-3.338,7.017,2.426,5.393,1.824-.82L48.487,44.2a5.982,5.982,0,1,1-1.825.816ZM52,30.744V33H50.521l-.7-1a1,1,0,0,0-.677-.416l-8.768-1.253A1.608,1.608,0,0,1,39,28.745V25h3v2a1,1,0,0,0,.713.958ZM40.091,32.309l.912.13.7,1.561H38.272a4.761,4.761,0,0,0-1.922-2.12L27,26.426V23.7l9.743-3.543.257.257v8.331A3.618,3.618,0,0,0,40.091,32.309ZM38.683,36.6a4.64,4.64,0,0,0,.03-.6h3.892l.32.713-4.974,5.742ZM46,10a3,3,0,0,1-6,0V8h6ZM41,4h2a2.941,2.941,0,0,1,.551.056c.056.01.109.026.164.04a2.733,2.733,0,0,1,.36.112q.085.031.168.069a3.065,3.065,0,0,1,.338.184c.041.026.085.049.125.076a3.059,3.059,0,0,1,.4.333c.021.021.039.046.06.068a3.169,3.169,0,0,1,.276.335c.033.047.063.1.093.145a2.94,2.94,0,0,1,.175.322c.025.054.051.108.073.163.012.032.018.065.03.1H38.171A3.006,3.006,0,0,1,41,4ZM21.35,18.514l10.41-6.362a4.979,4.979,0,0,1,5.9.5l3.316,2.9A3,3,0,0,1,42,17.815V23H39V20a1,1,0,0,0-.293-.707l-1-1a1,1,0,0,0-1.049-.233l-11,4A1,1,0,0,0,25,23v1H18.032A7.034,7.034,0,0,1,21.35,18.514Zm-.493,12.952A4.525,4.525,0,0,1,18,27.246V26h7v1a1,1,0,0,0,.5.864l4.163,2.428L27.434,34h-.241ZM15.11,50.457a1,1,0,0,0,.759.534l5.863.782a6.011,6.011,0,1,1-3.832-7.46l-2.782,5.216A1,1,0,0,0,15.11,50.457ZM17.562,49.2l2.1-3.941a5.986,5.986,0,0,1,2.326,4.531ZM16,60a10,10,0,1,1,3.8-19.246l-.949,1.78a8,8,0,1,0,4.878,9.505l1.994.266A10.009,10.009,0,0,1,16,60Zm9.984-9.678L24,50.057c0-.019,0-.038,0-.057a7.987,7.987,0,0,0-3.387-6.524l.95-1.781A10,10,0,0,1,26,50C26,50.109,25.987,50.214,25.984,50.322ZM22.5,39.93l1.238-2.321,3.3,7.7A12.065,12.065,0,0,0,22.5,39.93Zm5.466,9.475a11.939,11.939,0,0,0-.9-4.046l1.491,3.478A4.143,4.143,0,0,0,27.97,49.405Zm1.183,3.358.853.113,0,.062a1,1,0,0,0,.853,1.047A2,2,0,0,1,29.153,52.763Zm1.166-4.89L25.228,36h1.579l4.15,1.66ZM29.268,34.83l2.118-3.53,3.956,2.307A2.776,2.776,0,0,1,36.7,36.351L35.141,48.809,32.3,48.24,33,37.062a1,1,0,0,0-.626-.991ZM38,52.867l-5.943-.742.117-1.871,3.436.688L38,52.535ZM38,50c0,.046.006.09.007.136l-.938-.625.436-3.486,6.325-7.3.355.788A12,12,0,0,0,38,50ZM50,60a9.992,9.992,0,0,1-4.99-18.653l.826,1.835a7.864,7.864,0,1,0,1.82-.83l-.824-1.829A10,10,0,1,1,50,60Z"/></g></svg>
