<svg viewBox="0 0 512 512.001" fill="white" xmlns="http://www.w3.org/2000/svg"><path d="m122.75 447.890625c2.628906 0 5.210938-1.070313 7.070312-2.929687 1.859376-1.871094 2.929688-4.441407 2.929688-7.070313s-1.070312-5.210937-2.929688-7.070313c-1.859374-1.859374-4.441406-2.929687-7.070312-2.929687s-5.210938 1.070313-7.070312 2.929687c-1.859376 1.859376-2.929688 4.429688-2.929688 7.070313 0 2.628906 1.070312 5.210937 2.929688 7.070313 1.859374 1.859374 4.441406 2.929687 7.070312 2.929687zm0 0"/><path d="m501.96875 492h-49.421875c5.277344-5.597656 9.648437-12.246094 12.757813-19.8125 6.6875-16.253906 6.484374-34.078125-.566407-50.179688-1.03125-2.355468-2.203125-4.617187-3.480469-6.800781 2.734376-.609375 5.433594-1.535156 8.050782-2.777343 13.203125-6.273438 21.40625-19.253907 21.40625-33.871094 0-2.910156-1.265625-5.671875-3.464844-7.570313l-76.734375-66.210937-28.847656-85.78125c-12.023438-35.746094-43.515625-60.8125-80.316407-65.042969 10.882813-11.316406 17.59375-26.675781 17.59375-43.582031v-13.105469c0-19.417969-8.839843-36.800781-22.699218-48.359375 0-.050781.007812-.101562.007812-.152344v-8.5c0-22.195312-18.058594-40.253906-40.253906-40.253906s-40.25 18.058594-40.25 40.253906v8.5c0 .050782.003906.101563.007812.152344-13.863281 11.558594-22.703124 28.941406-22.703124 48.359375v13.105469c0 16.90625 6.710937 32.265625 17.597656 43.582031-36.804688 4.226563-68.296875 29.292969-80.316406 65.042969l-28.847657 85.78125-76.734375 66.210937c-2.203125 1.898438-3.46875 4.660157-3.46875 7.570313 0 14.617187 8.203125 27.597656 21.410156 33.871094 2.617188 1.246093 5.316407 2.167968 8.046876 2.78125-1.277344 2.179687-2.449219 4.441406-3.480469 6.796874-7.050781 16.105469-7.25 33.925782-.566407 50.183594 3.109376 7.5625 7.480469 14.210938 12.757813 19.808594h-49.453125c-5.523438 0-10 4.480469-10 10 0 5.523438 4.476562 10 10 10h491.96875c5.523438 0 10-4.476562 10-10 0-5.519531-4.476562-10-10-10zm-169.679688-185.511719 4.007813 9.5625c6.496094 15.503907 16.816406 29.308594 29.847656 39.929688l19.238281 15.675781-53.09375-19.695312zm-76.289062-286.488281c10.273438 0 18.761719 7.691406 20.0625 17.613281-6.304688-2.125-13.046875-3.296875-20.0625-3.296875-7.011719 0-13.753906 1.171875-20.058594 3.296875 1.296875-9.921875 9.789063-17.613281 20.058594-17.613281zm-42.945312 77.265625c0-23.679687 19.265624-42.945313 42.945312-42.945313s42.945312 19.265626 42.945312 42.945313v13.105469c0 23.679687-19.265624 42.945312-42.945312 42.945312s-42.945312-19.265625-42.945312-42.945312zm-171.292969 285.464844 74.863281-64.597657c1.359375-1.171874 2.375-2.6875 2.949219-4.386718l29.71875-88.375c10.46875-31.136719 39.574219-52.058594 72.425781-52.058594h68.566406c32.847656 0 61.953125 20.921875 72.425782 52.058594l29.71875 88.375c.570312 1.699218 1.589843 3.214844 2.945312 4.386718l74.867188 64.597657c-1.1875 5.082031-4.5625 9.28125-9.519532 11.636719-6.253906 2.96875-13.195312 2.132812-18.5625-2.242188l-63.378906-51.648438c-10.496094-8.550781-18.808594-19.671874-24.039062-32.15625l-22.453126-53.574218v-26.582032c0-5.519531-4.480468-10-10-10-5.523437 0-10 4.480469-10 10v120.75h-112.617187v-92.027343c0-.03125 0-.066407 0-.101563v-28.621094c0-5.519531-4.476563-10-10-10s-10 4.480469-10 10v26.6875l-22.414063 53.46875c-5.230468 12.484376-13.542968 23.605469-24.035156 32.15625l-63.382812 51.648438c-5.367188 4.375-12.308594 5.214844-18.5625 2.242188-4.953125-2.355469-8.328125-6.554688-9.515625-11.636719zm137.910156-30.753907-53.050781 19.679688 19.234375-15.675781c13.03125-10.621094 23.351562-24.425781 29.847656-39.929688l3.96875-9.460937zm-114.480469 112.609376c-4.601562-11.195313-4.464844-23.46875.390625-34.554688s13.78125-19.511719 25.128907-23.722656l100.796874-37.394532h128.984376l100.800781 37.394532c11.347656 4.210937 20.269531 12.632812 25.125 23.722656 4.855469 11.085938 4.992187 23.359375.390625 34.554688-6.820313 16.585937-22.390625 26.816406-39.207032 27.414062h-2.875c-4.734374-.140625-9.535156-1.039062-14.234374-2.789062l-89.949219-33.46875h13.351562c3.746094 0 7.175781-2.089844 8.890625-5.421876 1.714844-3.328124 1.425782-7.335937-.75-10.382812l-9.875-13.84375 74.324219 21.402344c.925781.265625 1.855469.394531 2.773437.394531 4.34375 0 8.34375-2.855469 9.605469-7.234375 1.527344-5.308594-1.535156-10.851562-6.84375-12.378906l-112.734375-32.460938c-14.4375-6.4375-31.050781-7.671875-46.933594-2.707031l-77.492187 24.25c-5.269531 1.652344-8.207031 7.261719-6.558594 12.53125 1.652344 5.269531 7.261719 8.207031 12.53125 6.558594l77.492188-24.25c11.03125-3.453125 22.566406-2.625 32.617187 1.796875.359375.191406.742188.359375 1.132813.511718 7.019531 3.316407 13.253906 8.417969 18 15.066407l4.398437 6.167969h-27.464844c-1.191406 0-2.371093.214843-3.488281.628906l-142.011719 52.839844c-4.6875 1.746093-9.480468 2.644531-14.207031 2.789062h-2.921875c-16.808594-.605469-32.367187-10.835938-39.1875-27.414062zm190.808594-4.074219 84.632812 31.488281h-169.265624zm0 0"/></svg>