<svg height="512pt" viewBox="-60 0 511 512" width="512pt" xmlns="http://www.w3.org/2000/svg"><path d="m368 320h-7.5v-17.5c0-15.164062-12.339844-27.5-27.5-27.5h-17.789062c-3.675782-48.125-42.445313-86.578125-90.695313-89.777344-3.199219-11.640625-13.871094-20.222656-26.515625-20.222656h-80c-12.464844 0-23.011719 8.339844-26.375 19.726562-42.519531-3.265624-76.125-38.882812-76.125-82.226562 0-4.144531-3.355469-7.5-7.5-7.5s-7.5 3.355469-7.5 7.5c0 51.238281 39.730469 93.371094 90 97.214844v72.785156c0 10.660156 6.105469 19.921875 15 24.480469v152.519531c0 9.773438 6.269531 18.113281 15 21.207031v18.386719l-24.871094 8.289062c-3.929687 1.308594-6.054687 5.558594-4.746094 9.488282 1.050782 3.140625 3.976563 5.128906 7.117188 5.128906.785156 0 1.585938-.125 2.371094-.386719l30-10c3.0625-1.019531 5.128906-3.886719 5.128906-7.113281v-23.792969c8.726562-3.09375 15-11.433593 15-21.207031v-105.039062c4.949219.714843 10.046875.714843 15 0v105.039062c0 9.773438 6.269531 18.113281 15 21.207031v23.792969c0 3.226562 2.0625 6.09375 5.128906 7.113281l30 10c.785156.261719 1.585938.386719 2.371094.386719 3.140625 0 6.066406-1.988281 7.113281-5.128906 1.3125-3.929688-.8125-8.179688-4.742187-9.488282l-24.871094-8.289062v-18.386719c8.726562-3.09375 15-11.433593 15-21.207031v-152.519531c8.894531-4.558594 15-13.820313 15-24.480469v-72.144531c39.515625 3.578125 71.0625 35.128906 74.644531 74.644531h-17.144531c-15.164062 0-27.5 12.335938-27.5 27.5v17.5h-7.5c-12.40625 0-22.5 10.09375-22.5 22.5v60c0 12.40625 10.09375 22.5 22.5 22.5h120c12.40625 0 22.5-10.09375 22.5-22.5v-60c0-12.40625-10.09375-22.5-22.5-22.5zm-250-140h32.5v105h-32.5c-6.894531 0-12.5-5.609375-12.5-12.5v-80c0-6.894531 5.605469-12.5 12.5-12.5zm70 277c-4.136719 0-7.5-3.367188-7.5-7.5v-114.570312c0-2.4375-1.183594-4.71875-3.167969-6.125-1.988281-1.402344-4.535156-1.761719-6.832031-.945313-8.046875 2.839844-16.957031 2.839844-25.003906 0-2.292969-.8125-4.839844-.460937-6.828125.945313s-3.167969 3.6875-3.167969 6.125v114.570312c0 4.132812-3.363281 7.5-7.5 7.5s-7.5-3.367188-7.5-7.5v-149.5h30v2.5c0 4.140625 3.355469 7.5 7.5 7.5 4.140625 0 7.5-3.359375 7.5-7.5v-2.5h30v149.5c0 4.132812-3.363281 7.5-7.5 7.5zm22.5-184.5c0 6.890625-5.609375 12.5-12.5 12.5h-32.5v-105h32.5c6.890625 0 12.5 5.605469 12.5 12.5zm60 30c0-6.894531 5.605469-12.5 12.5-12.5h50c6.890625 0 12.5 5.605469 12.5 12.5v17.5h-75zm0 62.4375h75v45.0625h-75zm75-15h-75v-14.9375h75zm-105 52.5625v-60c0-4.136719 3.363281-7.5 7.5-7.5h7.5v75h-7.5c-4.136719 0-7.5-3.367188-7.5-7.5zm135 0c0 4.132812-3.367188 7.5-7.5 7.5h-7.5v-75h7.5c4.132812 0 7.5 3.363281 7.5 7.5zm0 0"/><path d="m158 150c28.949219 0 52.5-23.550781 52.5-52.5v-67.5c0-12.40625-10.09375-22.5-22.5-22.5-2.929688 0-5.785156.566406-8.441406 1.644531-5.582032-5.765625-13.328125-9.144531-21.558594-9.144531s-15.980469 3.378906-21.558594 9.144531c-2.65625-1.078125-5.515625-1.644531-8.441406-1.644531-12.40625 0-22.5 10.09375-22.5 22.5v67.5c0 28.949219 23.550781 52.5 52.5 52.5zm-37.5-120c0-4.136719 3.363281-7.5 7.5-7.5 1.914062 0 3.742188.734375 5.144531 2.0625 1.6875 1.597656 4.011719 2.320312 6.308594 1.96875 2.289063-.355469 4.289063-1.75 5.414063-3.78125 2.644531-4.777344 7.679687-7.75 13.132812-7.75s10.484375 2.972656 13.132812 7.753906c1.125 2.027344 3.125 3.421875 5.417969 3.777344 2.289063.351562 4.617188-.371094 6.300781-1.96875 1.40625-1.328125 3.234376-2.0625 5.148438-2.0625 4.136719 0 7.5 3.363281 7.5 7.5v30.808594c-9.539062-9.746094-22.820312-15.808594-37.5-15.808594s-27.964844 6.0625-37.5 15.808594zm37.5 30c20.675781 0 37.5 16.820312 37.5 37.5 0 20.675781-16.824219 37.5-37.5 37.5-20.679688 0-37.5-16.824219-37.5-37.5 0-20.679688 16.820312-37.5 37.5-37.5zm0 0"/></svg>