<svg viewBox="0 0 512 512.001" fill="white" xmlns="http://www.w3.org/2000/svg"><path d="m494.605469 365.15625h-9.539063v-51.070312c0-12.003907-9.753906-21.769532-21.738281-21.769532h-29.648437c-4.035157 0-7.816407 1.105469-11.058594 3.027344-5.078125-20.019531-10.175782-36.28125-20.523438-48.917969-9.886718-12.078125-23.585937-19.5625-43.074218-23.242187-.234376-.054688-.472657-.101563-.714844-.136719-5.75-1.050781-12-1.773437-18.796875-2.191406-.367188-.046875-.734375-.0625-1.097657-.058594-.710937-.042969-1.417968-.082031-2.140624-.117187-.105469-.003907-.210938-.007813-.316407-.007813-8.824219-.035156-16.632812-2.4375-22.136719-6.628906 19.011719-15.339844 33.851563-36.574219 39.863282-57.644531 6.429687-1.414063 12.890625-4.976563 18.132812-10.148438 6.722656-6.636719 10.578125-15.011719 10.578125-22.980469v-10.238281c0-9.878906-8.03125-17.910156-17.90625-17.910156h-7.882812v-7.574219c0-29.980469-13.25-55.136719-37.308594-70.84375-29.582031-19.308594-72.480469-22.15625-106.75-7.089844-33.179687 14.589844-52.207031 42.992188-52.207031 77.933594v7.574219h-7.882813c-9.875 0-17.90625 8.03125-17.90625 17.910156v10.238281c0 7.96875 3.855469 16.347657 10.582031 22.988281 5.242188 5.171876 11.703126 8.734376 18.125 10.144532 5.734376 20.128906 19.523438 40.398437 37.308594 55.535156-5.039062 5.039062-12.90625 8.171875-22.183594 8.660156-.050781.003906-.101562 0-.152343 0-.265625.015625-1.058594.039063-1.855469.066406-.992188.03125-1.988281.0625-2.21875.078126-6.988281.371093-13.402344 1.0625-19.300781 2.078124-.027344 0-.054688-.003906-.082031-.003906-.984376 0-1.925782.195313-2.789063.539063-19.15625 3.777343-32.636719 11.324219-42.398437 23.433593-10.148438 12.59375-15.195313 28.714844-20.230469 48.550782-3.238281-1.917969-7.007813-3.023438-11.035157-3.023438h-29.648437c-12.003906 0-21.769531 9.765625-21.769531 21.769532v49.070312h-9.539063c-9.574219 0-17.363281 7.894531-17.363281 17.597656v38.179688c0 9.703125 7.789062 17.59375 17.363281 17.59375h9.539063v49.730468c0 11.988282 9.765625 21.742188 21.769531 21.742188h29.648437c11.988282 0 21.738282-9.753906 21.738282-21.742188v-28.488281c4.132812 1.09375 8.417968 1.667969 12.742187 1.667969 13.082031 0 25.332031-5.105469 34.421875-13.890625.121094 19.492187 8.863282 31.390625 28.3125 38.542969 17.863282 6.535156 47.902344 9.804687 78.582032 9.804687 30.488281 0 61.609374-3.230469 82.015624-9.703125 19.402344-6.175781 28.511719-18.457031 28.644532-38.621094 9.074218 8.78125 21.289062 13.867188 34.394531 13.867188 4.320313 0 8.605469-.570312 12.742187-1.667969v28.488281c0 11.988282 9.761719 21.742188 21.765626 21.742188h29.648437c11.984375 0 21.738281-9.753906 21.738281-21.742188v-47.753906h9.539063c9.59375 0 17.394531-7.894531 17.394531-17.597656v-38.148438c0-9.707031-7.800781-17.601562-17.394531-17.601562zm-138-228.359375v-26.5625h7.882812c1.515625 0 2.792969 1.28125 2.792969 2.792969v10.242187c0 3.894531-2.273438 8.460938-6.082031 12.21875-1.441407 1.421875-3.023438 2.648438-4.660157 3.640625.03125-.777344.066407-1.558594.066407-2.332031zm-200.855469-1.300781c-3.808594-3.761719-6.085938-8.332032-6.085938-12.226563v-10.242187c0-1.511719 1.28125-2.792969 2.792969-2.792969h7.882813v26.5625c0 .773437.035156 1.554687.0625 2.332031-1.628906-.992187-3.210938-2.210937-4.652344-3.632812zm-128.847656 285.917968h-9.539063c-1.21875 0-2.25-1.136718-2.25-2.480468v-38.179688c0-1.347656 1.03125-2.484375 2.25-2.484375h9.539063zm58.042968 25.128907v.039062 39.675781c0 3.59375-3.035156 6.628907-6.625 6.628907h-29.648437c-3.667969 0-6.652344-2.976563-6.652344-6.628907v-172.171874c0-3.609376 3.046875-6.65625 6.652344-6.65625h29.648437c3.589844 0 6.625 3.046874 6.625 6.65625zm326.96875-36.597657h-18.140624c.007812-.265624.03125-.527343.03125-.792968v-18.78125h18.109374zm-193.285156-386.492187c29.792969-13.101563 66.925782-10.722656 92.40625 5.90625 13.113282 8.5625 28.605469 24.597656 30.304688 52.992187-54.234375 19.664063-75.90625 11.449219-98.8125 2.765626-12.664063-4.800782-25.605469-9.703126-43.484375-9.703126-6.855469 0-14.4375.71875-23.011719 2.445313 4.007812-32.546875 27.863281-47.929687 42.597656-54.40625zm-41.578125 126.113281c0-.050781.003907-.097656.003907-.144531-.015626-1.066406-.253907-2.078125-.667969-2.992187-.601563-3.261719-.933594-6.488282-.933594-9.632813v-43.351563c28.847656-6.648437 44.15625-.851562 61.71875 5.804688 13 4.929688 26.929687 10.210938 47.015625 10.210938 14.96875-.003907 33.359375-2.941407 57.304688-11.148438v38.484375c0 3.109375-.320313 6.300781-.914063 9.527344-.441406.941406-.699219 1.988281-.714844 3.097656 0 .078125.007813.15625.007813.234375-6.566406 27.40625-32.421875 56.894531-61.363282 67.6875-14.777343 5.5-25.238281 5.507812-39.992187.027344-29.015625-10.773438-54.9375-40.328125-61.464844-67.804688zm35.6875 71.496094c6.539063 4.277344 13.425781 7.84375 20.515625 10.476562 9.070313 3.371094 17.144532 5.054688 25.21875 5.054688 8.101563 0 16.203125-1.695312 25.3125-5.085938 5.941406-2.21875 11.742188-5.09375 17.3125-8.484374 6.175782 6.042968 14.558594 10.113281 24.292969 11.828124-10.964844 11.042969-34.683594 20.539063-66.859375 20.539063-31.890625 0-56.792969-9.929687-67.738281-21.46875 8.921875-2.332031 16.511719-6.777344 21.945312-12.859375zm-112.679687 93.9375 1.164062-4.730469c9.367188-38.203125 14.996094-61.117187 45.992188-70.214843v47.863281c0 4.171875 3.382812 7.554687 7.558594 7.554687 4.171874 0 7.554687-3.382812 7.554687-7.554687v-50.949219c3.503906-.460938 7.25-.8125 11.257813-1.054688 11.300781 20.617188 44.949218 34.59375 84.945312 34.59375 39.785156 0 73.261719-13.820312 84.636719-34.226562 2.253906.195312 4.417969.433594 6.503906.710938v50.925781c0 4.175781 3.382813 7.558593 7.554687 7.558593 4.175782 0 7.558594-3.386718 7.558594-7.558593v-47.839844c31 9.117187 36.636719 32.101563 45.96875 70.195313l1.160156 4.730468v60.25h-18.109374v-.792968c0-8.042969-3.6875-12.847657-6.785157-15.460938-5.121093-4.332031-12.449219-6.191406-22.234375-5.648438v-30.511718c0-4.175782-3.382812-7.558594-7.558594-7.558594-4.171874 0-7.554687 3.382812-7.554687 7.558594v32.597656l-26.101563 4.421875c-8.199218 1.390625-17.625 5.265625-21.082031 15.394531h-93.207031c-3.640625-9.640625-12.847656-13.390625-20.878906-14.765625l-26.074219-4.421875v-33.226562c0-4.175782-3.382813-7.558594-7.554687-7.558594-4.171876 0-7.558594 3.382812-7.558594 7.558594v31.140625c-9.78125-.539063-17.109375 1.320312-22.234375 5.648437-3.09375 2.613282-6.785157 7.421875-6.785157 15.460938v.164062h-18.136718zm245.960937 107.960938c-8.65625 0-16.800781-1.605469-22.351562-4.40625-7.429688-3.753907-7.429688-8.003907-7.429688-9.402344v-24.394532l-.003906-.480468c-.023437-3.492188-.058594-7.835938 9.863281-9.515625l32.394532-5.492188h-.003907c12.984375-2.199219 17.457031.160157 18.777344 1.273438 1.011719.855469 1.425781 1.992187 1.425781 3.917969v34.691406c0 7.355468-15.265625 13.808594-32.671875 13.808594zm-44.867187-13.015626h-90.28125c0-.054687.007812-.109374.007812-.164062v-19.410156h90.242188v18.78125c0 .265625.023437.527344.03125.792968zm-201.09375-19.574218h18.136718v19.410156c0 .054688.007813.109375.007813.164062h-18.144531zm12.742187 53.953125c-4.394531 0-8.730469-.835938-12.742187-2.4375v-16.828125h24.527344c2.71875 2.859375 6.261718 5.367187 10.582031 7.425781.839843.398437 1.707031.777344 2.59375 1.140625-6.402344 6.746094-15.363281 10.699219-24.960938 10.699219zm20.511719-34.542969v-34.691406c0-1.925782.410156-3.0625 1.421875-3.914063.929687-.785156 3.410156-2.179687 9.300781-2.179687 2.5 0 5.609375.25 9.472656.90625l32.355469 5.488281c8.03125 1.371094 9.5625 4.464844 9.84375 7.441406 0 .28125.019531.558594.050781.835938.011719.425781.011719.847656.007813 1.257812v24.855469c0 .691406-.003906 2.085938-.90625 3.769531-.082031.136719-.167969.269531-.242187.410157-.984376 1.625-2.824219 3.476562-6.285157 5.222656-5.546875 2.800781-13.695312 4.40625-22.351562 4.40625-17.402344 0-32.667969-6.453125-32.667969-13.808594zm216.359375 35.347656c0 13.949219-4.746094 20.402344-18.117187 24.65625-37.070313 11.753906-118.828126 11.8125-150.816407.113282-13.761719-5.0625-18.410156-11.3125-18.410156-24.769532v-6.503906c1.210937.050781 2.429687.078125 3.652344.078125 11.105469 0 21.460937-2.140625 29.164062-6.027344 4.109375-2.078125 7.457031-4.652343 10.003907-7.617187h102.242187c2.472656 2.703125 5.644531 5.058594 9.464844 6.988281 7.703125 3.886719 18.058593 6.027344 29.164062 6.027344 1.222657 0 2.441407-.027344 3.648438-.078125v7.132812zm49.5-.804687c-9.832031 0-18.945313-4.125-25.367187-11.152344 1.039062-.414063 2.054687-.851563 3.027343-1.316406 4.003907-1.90625 7.34375-4.199219 9.976563-6.796875h25.105468v16.828125c-4.015624 1.601562-8.351562 2.4375-12.742187 2.4375zm70.78125 41.933593c0 3.65625-2.972656 6.628907-6.625 6.628907h-29.648437c-3.667969 0-6.652344-2.976563-6.652344-6.628907v-39.664062c0-.019531 0-.039062 0-.058594v-132.449218c0-3.609376 3.046875-6.65625 6.652344-6.65625h29.648437c3.652344 0 6.625 2.988281 6.625 6.65625zm26.933594-65.351562c0 1.34375-1.042969 2.480469-2.28125 2.480469h-9.539063v-43.113281h9.539063c1.238281 0 2.28125 1.136718 2.28125 2.480468zm0 0"/><path d="m223.621094 144.210938c4.175781 0 7.558594-3.382813 7.558594-7.558594v-8.523438c0-4.171875-3.382813-7.558594-7.558594-7.558594-4.175782 0-7.558594 3.386719-7.558594 7.558594v8.523438c0 4.175781 3.382812 7.558594 7.558594 7.558594zm0 0"/><path d="m294.324219 144.210938c4.175781 0 7.558593-3.382813 7.558593-7.558594v-8.523438c0-4.171875-3.382812-7.558594-7.558593-7.558594-4.171875 0-7.554688 3.386719-7.554688 7.558594v8.523438c0 4.175781 3.382813 7.558594 7.554688 7.558594zm0 0"/></svg>