<?xml version="1.0" encoding="iso-8859-1"?>
<!-- Generator: Adobe Illustrator 19.0.0, SVG Export Plug-In . SVG Version: 6.00 Build 0)  -->
<svg version="1.1" id="Capa_1" xmlns="http://www.w3.org/2000/svg" xmlns:xlink="http://www.w3.org/1999/xlink" x="0px" y="0px"
	 viewBox="0 0 479.982 479.982" style="enable-background:new 0 0 479.982 479.982;" fill="white" xml:space="preserve">
<g>
	<g>
		<path d="M451.991,103.982h-32c-4.418,0-8,3.582-8,8v8c0-4.418-3.582-8-8-8h-24c-4.22-0.009-7.721,3.261-8,7.472l-0.552,8.528
			h-15.448v-16c0-4.418-3.582-8-8-8h-32c-4.418,0-8,3.582-8,8v48c0,4.418,3.582,8,8,8h32c4.418,0,8-3.582,8-8v-16h14.4
			l-4.368,65.448c-0.716,8.265-7.656,14.596-15.952,14.552h-50.08v-3.432c-0.012-3.081-1.792-5.881-4.576-7.2
			c-10.834-5.061-22.321-8.588-34.128-10.48c-1.282-0.184-2.589-0.052-3.808,0.384c-4.404-1.342-8.917-2.295-13.488-2.848v-21.824
			c2.372-1.213,4.67-2.568,6.88-4.056c26.88-18.808,49.12-37.696,49.12-78.344v-8.2c-0.039-24.325-10.108-47.556-27.832-64.216
			c-31.185-28.994-78.562-31.77-112.92-6.616c-34.748-6.252-67.986,16.849-74.238,51.598c-0.667,3.708-1.005,7.467-1.01,11.234v120
			c0,4.418,3.582,8,8,8c30.589,0.052,60.015-11.72,82.128-32.856c1.897,1.251,3.857,2.404,5.872,3.456v21.824
			c-4.572,0.542-9.088,1.484-13.496,2.816c-1.216-0.435-2.521-0.567-3.8-0.384c-11.807,1.892-23.294,5.419-34.128,10.48
			c-2.784,1.319-4.564,4.119-4.576,7.2v0.264c-30.253,33.984-47.288,77.707-48,123.2c0,21.944,1.048,47.2,7.544,64H67.991v-16
			c0-4.418-3.582-8-8-8h-32c-4.418,0-8,3.582-8,8v48c0,4.418,3.582,8,8,8h32c4.418,0,8-3.582,8-8v-16h45.736
			c-8.973,17.306-13.682,36.506-13.736,56h16c0.041-13.763,2.758-27.386,8-40.112v0.112c0,4.418,3.582,8,8,8h32c4.418,0,8-3.582,8-8
			v-32h100.16l4.608,5.76c15.014,18.816,23.204,42.168,23.232,66.24h16c-0.035-27.704-9.463-54.578-26.744-76.232l-6.12-7.648
			l-3.072-9.216c-7.446-22.371-6.735-46.655,2.008-68.552l0.448-1.12c9.928-3.11,16.89-12.045,17.48-22.432v-0.328l86.712-18.576
			c14.717-3.225,25.225-16.23,25.288-31.296v-84.6c0,4.418,3.582,8,8,8h32c4.418,0,8-3.582,8-8v-48
			C459.991,107.564,456.409,103.982,451.991,103.982z M339.991,151.982h-16v-32h16V151.982z M51.991,431.982h-16v-32h16V431.982z
			 M113.983,404.606l0.56,3.4h-13.28c-4.568-6.36-9.272-22.888-9.272-64.024c0.663-35.237,11.803-69.478,32-98.36
			c0,0,0,48.584,0,48.584C113.439,318.11,109.935,380.302,113.983,404.606z M207.191,16.134
			c37.941-2.556,71.313,24.867,76.16,62.584l-43.784-21.896c-1.534-0.771-3.278-1.024-4.968-0.72l-92.944,16.4
			C148.23,41.048,175.108,17.93,207.191,16.134z M99.991,191.678V79.982c0.032-24.777,18.899-45.466,43.568-47.776
			c-12.758,15.78-19.671,35.484-19.568,55.776v8.2c0,34.32,15.88,53.112,36.992,69.464
			C144.094,180.835,122.643,189.991,99.991,191.678z M139.991,96.182v-7.136l94.792-16.728l49.168,24.584
			c-0.232,29.792-13.84,44.624-42.248,64.52c-17.857,12.433-41.567,12.433-59.424,0C153.631,141.358,139.991,126.486,139.991,96.182
			z M171.991,218.15c5.214-1.429,10.594-2.158,16-2.168c4.418,0,8-3.582,8-8v-23.336c10.484,2.79,21.516,2.79,32,0v23.336
			c0,4.418,3.582,8,8,8c5.406,0.01,10.786,0.739,16,2.168v12.8l-40,8.6l-40-8.6V218.15z M128.463,384.886
			c-0.491-23.92,1.577-47.824,6.168-71.304c2.084,1.442,4.328,2.636,6.688,3.56c8.065,21.493,8.413,45.119,0.984,66.84h-10.312
			C130.76,384.001,129.551,384.311,128.463,384.886z M155.991,431.982h-16v-32h16V431.982z M171.991,391.982c0-4.418-3.582-8-8-8
			h-4.8c6.055-20.904,6.055-43.096,0-64h105.28c-7.512,23.435-7.369,48.652,0.408,72H171.991z M283.991,294.782
			c0,4.344-6.84,9.2-16,9.2h-112c-9.16,0-16-4.856-16-9.2v-69.024c5.193-2.144,10.542-3.89,16-5.224v16.904
			c-0.001,3.772,2.632,7.032,6.32,7.824l48,10.328c1.107,0.242,2.253,0.242,3.36,0l48-10.328c3.688-0.792,6.321-4.052,6.32-7.824
			v-16.912c5.458,1.334,10.807,3.08,16,5.224V294.782z M383.343,260.23l-83.352,17.856v-38.104h50.08
			c16.645,0.051,30.531-12.706,31.888-29.296l5.52-82.704h8.512v116.6h0C395.962,252.117,390.705,258.622,383.343,260.23z
			 M443.991,151.982h-16v-32h16V151.982z"/>
	</g>
</g>
<g>
</g>
<g>
</g>
<g>
</g>
<g>
</g>
<g>
</g>
<g>
</g>
<g>
</g>
<g>
</g>
<g>
</g>
<g>
</g>
<g>
</g>
<g>
</g>
<g>
</g>
<g>
</g>
<g>
</g>
</svg>
