<svg viewBox="0 0 496 496" fill="#db325a" xmlns="http://www.w3.org/2000/svg"><path d="m184 0h-176c-4.414062 0-8 3.574219-8 8v32c0 4.425781 3.585938 8 8 8h64v24c0 4.425781 3.585938 8 8 8h8v17.136719c-13.761719 3.574219-24 15.992187-24 30.863281 0 7.128906 2.425781 13.65625 6.382812 18.984375l-16.535156 45.015625h-5.847656c-17.648438 0-32 14.351562-32 32v216c0 30.871094 25.121094 56 56 56h48c30.878906 0 56-25.128906 56-56v-216c0-17.648438-14.351562-32-32-32h-2.726562l-19.417969-45.304688c3.824219-5.269531 6.144531-11.695312 6.144531-18.695312 0-14.871094-10.238281-27.289062-24-30.863281v-17.136719h8c4.414062 0 8-3.574219 8-8v-24h64c4.414062 0 8-3.574219 8-8v-32c0-4.425781-3.585938-8-8-8zm-64 480h-48c-22.054688 0-40-17.945312-40-40v-24h128v24c0 22.054688-17.945312 40-40 40zm40-256v176h-128v-176c0-8.824219 7.175781-16 16-16h96c8.824219 0 16 7.175781 16 16zm-89.113281-32 12.679687-34.511719c3.824219 1.617188 8.027344 2.511719 12.433594 2.511719 4.617188 0 8.984375-1.03125 12.960938-2.800781l14.910156 34.800781zm41.113281-64c0 8.824219-7.175781 16-16 16s-16-7.175781-16-16 7.175781-16 16-16 16 7.175781 16 16zm-8-64h-16v-16h16zm72-32h-160v-16h160zm0 0"/><path d="m472 0h-48c-13.230469 0-24 10.769531-24 24v16h-96v-16c0-13.230469-10.769531-24-24-24h-48c-13.230469 0-24 10.769531-24 24v96c0 13.230469 10.769531 24 24 24h48c13.230469 0 24-10.769531 24-24v-16h96v16c0 13.230469 10.769531 24 24 24h48c13.230469 0 24-10.769531 24-24v-96c0-13.230469-10.769531-24-24-24zm-184 120c0 4.414062-3.59375 8-8 8h-48c-4.40625 0-8-3.585938-8-8v-96c0-4.414062 3.59375-8 8-8h48c4.40625 0 8 3.585938 8 8zm16-32v-32h96v32zm176 32c0 4.414062-3.59375 8-8 8h-48c-4.40625 0-8-3.585938-8-8v-96c0-4.414062 3.59375-8 8-8h48c4.40625 0 8 3.585938 8 8zm0 0"/><path d="m424 160h-80c-39.695312 0-72 32.296875-72 72v24.808594c-18.230469 3.71875-32 19.871094-32 39.191406v45.273438c0 19.285156 8.328125 37.636718 22.839844 50.351562l41.160156 36.007812v4.367188h-24c-4.414062 0-8 3.574219-8 8v48c0 4.425781 3.585938 8 8 8h192c4.414062 0 8-3.574219 8-8v-48c0-4.425781-3.585938-8-8-8h-24v-4.734375c30.984375-32.167969 48-74.355469 48-119.152344v-76.113281c0-39.703125-32.304688-72-72-72zm40 320h-176v-32h176zm16-171.878906c0 41.640625-16.214844 80.78125-45.65625 110.222656-1.503906 1.496094-2.34375 3.527344-2.34375 5.65625v8h-112v-8c0-2.304688-1-4.496094-2.726562-6.023438l-43.890626-38.402343c-11.046874-9.664063-17.382812-23.621094-17.382812-38.300781v-45.273438c0-13.230469 10.769531-24 24-24s24 10.769531 24 24v16h16v-16c0-19.3125-13.769531-35.472656-32-39.191406v-24.808594c0-30.871094 25.121094-56 56-56h80c30.878906 0 56 25.128906 56 56zm0 0"/></svg>