<svg height="480pt" viewBox="0 0 480 480.04213" width="480pt" xmlns="http://www.w3.org/2000/svg"><path d="m472.050781 240.042969h-13.496093c-57.421876-.164063-112.730469 21.644531-154.589844 60.949219-42.867188-37.503907-106.050782-40.160157-151.914063-6.382813v-59.03125c11.3125-3.121094 22.09375-7.90625 32-14.191406 43.128907 27.234375 98.765625 24.210937 138.6875-7.535157 39.925781-31.746093 55.402344-85.269531 38.582031-133.425781-16.824218-48.152343-62.261718-80.4023435-113.269531-80.3828122-22.640625.0078124-44.816406 6.4648432-63.917969 18.6250002-52.730468-33.472657-122.328124-20.84375-159.9375 29.015625-37.613281 49.863281-30.636718 120.25 16.03125 161.757812l-39.375 83.175782c-.515624 1.070312-.789062 2.238281-.8007808 3.425781v72c.0039063 2.222656.9257808 4.34375 2.5546878 5.855469l112 104c1.480469 1.378906 3.425781 2.144531 5.445312 2.144531h352c4.417969 0 8-3.582031 8-8v-224c0-4.417969-3.582031-8-8-8zm-320-21.015625v-21.785156l3.097657-1.367188c4.542968 5.53125 9.570312 10.644531 15.023437 15.277344-5.769531 3.203125-11.839844 5.839844-18.121094 7.875zm96-202.984375c57.4375 0 104 46.5625 104 104s-46.5625 104-104 104-104-46.5625-104-104c.066407-57.410157 46.589844-103.933594 104-104zm-232 104c-.027343-36.773438 19.382813-70.824219 51.039063-89.539063s70.84375-19.300781 103.050781-1.550781c-16.085937 13.78125-28.25 31.5625-35.257813 51.554687-23.132812 2.136719-43.132812 17.011719-51.839843 38.550782l-35.628907 75.222656c-20.039062-19.503906-31.347656-46.277344-31.363281-74.238281zm304 344h-196.855469l-107.144531-99.496094v-66.703125l81.648438-172.394531c5.632812-14.089844 17.789062-24.539063 32.5625-28-5.738281 29.304687-.191407 59.695312 15.527343 85.082031l-4.984374 2.214844c-2.886719 1.28125-4.746094 4.140625-4.753907 7.296875v120c.003907 3.234375 1.953125 6.152343 4.941407 7.386719 2.988281 1.238281 6.429687.554687 8.714843-1.730469 38.894531-38.757813 101.050781-41.09375 142.746094-5.367188l-18.058594 18.054688 11.3125 11.3125 24-24c3.34375-3.34375 6.816407-6.519531 10.34375-9.601563zm144 0h-128v-168h-.949219c35.859376-26.101563 79.101563-40.109375 123.453126-40h5.496093zm0 0"/><path d="m248.050781 200.042969c44.183594 0 80-35.816407 80-80 0-44.183594-35.816406-80-80-80-44.179687 0-80 35.816406-80 80 .050781 44.160156 35.839844 79.949219 80 80zm0-144c35.347657 0 64 28.652343 64 64 0 35.34375-28.652343 64-64 64-35.34375 0-64-28.65625-64-64 .042969-35.332031 28.671875-63.960938 64-64zm0 0"/><path d="m248.050781 160.042969c22.09375 0 40-17.910157 40-40 0-22.09375-17.90625-40-40-40-22.089843 0-40 17.90625-40 40 .027344 22.078125 17.921875 39.972656 40 40zm0-64c13.257813 0 24 10.746093 24 24 0 13.253906-10.742187 24-24 24-13.253906 0-24-10.746094-24-24 0-13.253907 10.746094-24 24-24zm0 0"/><path d="m48.65625 284.960938 26.683594-63.996094 14.769531 6.15625-26.683594 64zm0 0"/><path d="m81.996094 204.964844 6.671875-16.003906 14.769531 6.160156-6.671875 16zm0 0"/></svg>