<svg viewBox="-27 1 511 511.999" fill="white" xmlns="http://www.w3.org/2000/svg"><path d="m453.265625 380.566406-18.140625-28.628906c-2.957031-4.667969-9.132812-6.050781-13.800781-3.097656-4.664063 2.957031-6.046875 9.136718-3.09375 13.800781l18.144531 28.632813c3.226562 5.09375 2.453125 11.863281-1.839844 16.101562-2.707031 2.671875-6.429687 4.007812-10.222656 3.667969-3.789062-.34375-7.214844-2.320313-9.40625-5.433594l-78.199219-111.214844-31.003906-73.960937v-8.691406c0-5.519532-4.476563-10-10-10-5.519531 0-10 4.480468-10 10v133.261718h-112.617187v-122.433594c0-.03125 0-.066406 0-.101562v-10.726562c0-5.519532-4.476563-10-10-10-5.523438 0-10 4.480468-10 10v8.792968l-30.957032 73.859375-78.203125 111.214844c-2.1875 3.109375-5.617187 5.089844-9.40625 5.429687-3.785156.339844-7.515625-.992187-10.222656-3.667968-4.292969-4.234375-5.066406-11.003906-1.839844-16.101563l69.496094-109.671875c.433594-.679687.777344-1.402344 1.035156-2.164062l29.71875-88.378906c10.46875-31.136719 39.578125-52.054688 72.425781-52.054688h68.566407c32.851562 0 61.957031 20.917969 72.425781 52.054688l29.722656 88.378906c.253906.761718.601563 1.484375 1.03125 2.164062l13.578125 21.433594c1.90625 3.003906 5.144531 4.648438 8.457031 4.648438 1.832032 0 3.683594-.503907 5.34375-1.554688 4.664063-2.957031 6.050782-9.136719 3.09375-13.800781l-12.933593-20.410157-29.335938-87.234374c-12.019531-35.75-43.511719-60.816407-80.316406-65.042969 10.882813-11.320313 17.597656-26.679688 17.597656-43.585938v-13.105469c0-34.707031-28.238281-62.945312-62.949219-62.945312-34.707031 0-62.945312 28.238281-62.945312 62.945312v13.105469c0 16.90625 6.710938 32.265625 17.597656 43.585938-36.804687 4.226562-68.296875 29.292969-80.320312 65.042969l-29.332032 87.234374-68.851562 108.652344c-8.230469 12.984375-6.257812 30.246094 4.6875 41.042969 4.96875 4.902344 11.285156 8.039063 18.035156 9.085937-.003906.011719-.007812.019532-.007812.027344-5.285156 14.136719-5.082032 29.628906.570312 43.621094 9.367188 23.191406 31.820313 37.65625 55.839844 37.65625 5.171875 0 10.421875-.671875 15.625-2.074219l129.101562-34.75 129.101563 34.75c5.203125 1.402344 10.449219 2.074219 15.625 2.074219 24.011719-.003906 46.46875-14.46875 55.835937-37.65625 5.652344-13.992188 5.855469-29.484375.574219-43.621094-.003906-.007812-.007812-.015625-.011719-.027344 6.75-1.046874 13.066407-4.183593 18.039063-9.085937 10.945313-10.792969 12.917969-28.054687 4.6875-41.042969zm-266.796875-317.621094c0-23.679687 19.265625-42.945312 42.949219-42.945312 23.679687 0 42.945312 19.265625 42.945312 42.945312v13.105469c0 23.683594-19.265625 42.949219-42.945312 42.949219-23.683594 0-42.949219-19.269531-42.949219-42.949219zm132.207031 240.179688c.277344.664062.628907 1.300781 1.042969 1.886719l56.402344 80.210937-70.417969-35.90625v-77.144531zm-179.5625 1.886719c.414063-.585938.761719-1.222657 1.039063-1.886719l12.933594-30.851562v77.066406l-70.378907 35.882812zm272.324219 161.84375c-7.605469 18.820312-28.121094 29.035156-47.722656 23.761719l-101.167969-27.234376c8.105469-6.390624 13.15625-16.273437 13.15625-27.0625 0-.375-.019531-.746093-.03125-1.117187l62.515625 14.765625c.773438.183594 1.546875.269531 2.308594.269531 4.53125 0 8.636718-3.101562 9.722656-7.703125 1.269531-5.375-2.058594-10.761718-7.433594-12.03125l-74.785156-17.664062c-.59375-.140625-1.191406-.214844-1.785156-.246094-1.109375-1.160156-2.296875-2.265625-3.582032-3.28125-8.304687-6.570312-18.980468-8.941406-29.289062-6.511719l-117.296875 27.703125c-5.375 1.269532-8.703125 6.65625-7.433594 12.03125s6.652344 8.703125 12.03125 7.433594l117.292969-27.703125c4.328125-1.023437 8.804688-.027344 12.285156 2.730469 3.484375 2.757812 5.480469 6.886718 5.480469 11.324218 0 6.519532-4.398437 12.253907-10.691406 13.949219l-17.804688 4.792969c-.210937.046875-.414062.105469-.617187.164062l-131.472656 35.386719c-19.601563 5.277344-40.117188-4.9375-47.722657-23.757812-7.859375-19.464844.3125-41.335938 19.011719-50.871094l99.988281-50.980469h126.042969l99.988281 50.980469c18.699219 9.539063 26.875 31.40625 19.011719 50.871094zm0 0"/><path d="m399.621094 333.78125c1.953125 1.957031 4.515625 2.9375 7.082031 2.9375 2.554687 0 5.109375-.972656 7.0625-2.921875l.371094-.367187c3.910156-3.902344 3.917969-10.234376.015625-14.144532-3.898438-3.910156-10.230469-3.917968-14.140625-.019531l-.371094.371094c-3.910156 3.902343-3.917969 10.234375-.019531 14.144531zm0 0"/></svg>