<svg viewBox="0 0 474.199 474.199" fill="white" xmlns="http://www.w3.org/2000/svg"><path d="m510.878906 491.105469v-2.027344c0-11.519531-9.371094-20.894531-20.894531-20.894531h-73.714844c6.957031-7.847656 11.195313-18.160156 11.195313-29.449219 0-24.507813-19.9375-44.445313-44.449219-44.445313-24.507813 0-44.445313 19.9375-44.445313 44.445313 0 11.289063 4.238282 21.601563 11.195313 29.449219h-15.5625c1.609375-3.394532 2.511719-7.183594 2.511719-11.179688 0-7.988281-3.597656-15.148437-9.257813-19.953125-.070312-.066406-.136719-.136719-.210937-.203125-.039063-.03125-.078125-.0625-.117188-.09375l-114.09375-93.472656c51.089844-85.496094 47.613282-79.644531 48.152344-80.644531 1.992188-3.628907.664062-8.1875-2.96875-10.183594-3.632812-1.988281-8.1875-.664063-10.179688 2.96875l-6.550781 10.992187-.570312-.226562 3.441406-7.574219c.785156-1.730469 1.363281-3.527343 1.753906-5.355469.742188-3.441406.785157-7.003906.09375-10.527343l-13.308593-67.558594c2.441406-1.054687 6.3125-2.90625 9.96875-5.050781l4.484374 54.527344c.339844 4.128906 3.96875 7.203124 8.085938 6.859374 4.128906-.339843 7.199219-3.960937 6.859375-8.089843l-5.230469-63.582031c14.226563-12.554688 24.355469-29.4375 28.640625-48.171876 4.863281-15.914062 1.765625-46.714843-7.9375-62.28125-7.324219-14.089843-18.511719-25.105468-21.753906-27.375-59.039063-50.554687-150.585937-8.386718-150.585937 69.347657 0 6.578125.71875 12.996093 2.046874 19.195312.042969.296875.109376.589844.1875.875 7.945313 35.398438 36.460938 63.332031 73.058594 69.78125l12.488282 63.40625-3.929688 8.660157s-.003906 0-.003906.003906l-37.425782 82.425781c-2.621093 5.769531-2.988281 11.992187-1.375 17.738281-4.867187 1.335938-9.398437 4.082032-12.921874 8.191406-9.394532 10.957032-8.125 27.515626 2.832031 36.914063l12.210937 10.46875 17.503906 55.816406c.363282 1.164063.816407 2.273438 1.320313 3.351563h-150.027344c-11.519531 0-20.894531 9.371094-20.894531 20.894531v2.027344c0 11.519531 9.375 20.894531 20.894531 20.894531h216.796875c4.144532 0 7.5-3.359375 7.5-7.5s-3.355468-7.496094-7.5-7.496094h-216.796875c-3.25 0-5.898437-2.648437-5.898437-5.898437v-2.027344c0-3.25 2.648437-5.898437 5.898437-5.898437h468.589844c3.25 0 5.898437 2.644531 5.898437 5.898437v2.027344c0 3.25-2.648437 5.898437-5.898437 5.898437h-216.796875c-4.140625 0-7.5 3.355469-7.5 7.496094s3.359375 7.5 7.5 7.5h216.796875c11.523437 0 20.894531-9.371094 20.894531-20.894531zm-157.3125-52.371094c0-16.238281 13.210938-29.449219 29.449219-29.449219s29.449219 13.210938 29.449219 29.449219-13.210938 29.449219-29.449219 29.449219-29.449219-13.210938-29.449219-29.449219zm-188.058594-96.828125 34.46875-75.910156 20.789063 8.296875-27.152344 59.804687c-11.324219 1.824219-20.890625 8.535156-26.964843 18.917969-2.445313-3.382813-2.742188-7.582031-1.140626-11.109375zm-21.269531-305.84375c31.027344 4.101562 73.847657 4.113281 104.960938 0 3.972656 3.773438 7.550781 7.953125 10.640625 12.496094-32.667969 6.675781-93.652344 6.660156-126.242188 0 3.089844-4.542969 6.671875-8.722656 10.640625-12.496094zm85.675781 123.96875-.78125-3.972656c3.132813-.21875 6.1875-.46875 9.144532-.75-3.109375 2.027344-5.589844 3.382812-8.363282 4.722656zm27.4375-22.414062c-8.652343 1.605468-19.265624 2.835937-31.140624 3.609374l-2.804688-14.230468c11.664062-.679688 29.460938-2.1875 43.351562-5.445313-2.472656 5.730469-5.636718 11.125-9.40625 16.066407zm15.660157-46.261719c0 4.433593-.390625 8.796875-1.132813 13.0625-7.699218 3.082031-25.507812 6.398437-51.394531 7.726562l-.210937-1.066406 7.546874-13.933594c13.558594-.90625 32.25-2.828125 45.164063-6.847656.003906.355469.027344.707031.027344 1.058594zm-1.765625-16.273438c-5.777344 2.164063-17.761719 4.953125-38.421875 6.652344.082031-4.9375-1.234375-9.902344-3.9375-14.265625 15.113281-1.058594 28.449219-2.847656 38.347656-5.203125 1.699219 4.105469 3.046875 8.390625 4.011719 12.816406zm-87.378906-6.695312c-.078126.140625-.164063.28125-.242188.421875l-7.523438 13.894531c-28.429687-1.246094-46.210937-4.773437-53.90625-7.628906.964844-4.421875 2.308594-8.707031 4.007813-12.808594 13.949219 3.316406 34.71875 5.519531 57.664063 6.121094zm-15.433594 28.921875c-.441406 1.125-.828125 2.269531-1.109375 3.441406-.527344 2.191406-.773438 4.445312-.726563 6.703125.027344 1.453125.1875 2.910156.460938 4.347656-22.839844-1.492187-38.410156-4.5-45.515625-7.378906-.734375-4.25-1.117188-8.613281-1.117188-13.0625 0-.367187.023438-.726563.027344-1.089844 13.714844 4.25 34.019531 6.179688 47.980469 7.039063zm-32.398438 40.300781c-3.746094-4.917969-6.90625-10.296875-9.378906-16.035156 13.878906 3.269531 31.640625 4.761719 43.390625 5.429687l2.867187 14.550782c-14.082031-.722657-26.851562-2.085938-36.878906-3.945313zm45.761719-28.550781c-.5-2.546875-.097656-5.207032 1.140625-7.488282l13.875-25.617187c2.9375-5.421875 9.734375-7.441406 15.15625-4.503906 5.078125 2.75 7.175781 8.855469 5.011719 14.085937 0 0-9.988281 18.578125-11.179688 20.777344-.832031 1.535156-1.101562 3.308594-.765625 5.019531l11.9375 60.589844 14.515625 73.710937c.453125 2.304688.183594 4.648438-.789062 6.785157l-3.726563 8.207031-20.789062-8.296875 1.679687-3.699219c.644531-1.425781.832031-3.015625.527344-4.550781-1.265625-6.429687-25.457031-129.257813-26.59375-135.019531zm32.511719 321.765625-7.941406-25.320313 30.910156 25.320313zm-35.675782-68.453125c3.570313-6.992188 9.640626-12.433594 17.515626-13.535156l100.078124 81.988281h-35.285156c-88.136718-72.210938-48.351562-39.335938-82.308594-68.453125zm51.75-339.453125c-21.480468 1.636719-45.839843 1.636719-67.324218 0 21.203125-10.472657 46.117187-10.476563 67.324218 0zm-75.332031 132.371093c6.558594.628907 13.566407 1.105469 20.847657 1.421876l1.675781 8.503906c-8.140625-2.09375-15.714844-5.484375-22.523438-9.925782zm29.359375 305.058594-18.144531-57.867187c-.417969-1.339844-1.207031-2.535157-2.273437-3.449219l-13.839844-11.867188c-4.679688-4.015624-5.222656-11.085937-1.210938-15.769531 4.054688-4.726562 11.140625-5.171875 15.765625-1.207031l17.90625 15.351562c1.417969 1.214844 2.738281 3.070313 3.390625 5.140626l15.640625 49.886718c.980469 3.128906 3.878907 5.253906 7.15625 5.253906h23.40625v22.363282h-37.125c-4.914062 0-9.199219-3.148438-10.671875-7.835938zm62.792969 7.835938v-22.363282h63.335937c1.707032 0 3.613282.421876 5.324219 1.355469 3.484375 1.894531 5.855469 5.589844 5.855469 9.828125 0 6.164063-5.015625 11.179688-11.183594 11.179688zm0 0"/></svg>